<?xml version="1.0" encoding="UTF-8"?>
<svg version="1.1" viewBox="0 0 1496 1496" width="1280" height="1280" xmlns="http://www.w3.org/2000/svg">
<path transform="translate(524,63)" d="m0 0h397v15l-3 38-9 57-5 26-18 71-12 36-12 35-13 30-13 29-19 40-14 24-13 23-20 30-13 19-16 21-10 13-9 11-13 16-12 14-7 7-7 8-16 17-33 33-11 9-13 11-10 8-14 12-10 8-18 13-17 12-15 10-22 14-21 13-46 25-16 8-29 13-31 13-39 14-30 10-50 14-36 8-43 8-37 5-28 3-17 1h-16l-1-1v-384l3-1 48-4 22-3 42-9 21-6 41-14 38-18 13-7 24-15 21-14 13-11 10-8 10-9 14-13 8-7 17-17 20-25 24-34 12-23 10-19 8-15 10-25 9-25 8-31 6-28 4-30z" fill="#036cf7"/>
<path transform="translate(1105,393)" d="m0 0 5 2 13 10 14 12 16 13 11 7 18 12 17 10 24 13 16 8 35 14 18 6 33 9 39 7 37 4 27 3 1 2v439l-8 2-64 7-26 5-36 9-38 13-18 8-32 16-28 17-12 8-21 16-10 8-13 12-8 7-10 9-8 7-12 13-9 11-10 13-12 16-12 19-12 20-12 23-11 23-11 28-8 26-8 32-4 19-4 35-3 31-2 7-1 1h-359l6-7 10-9 17-12 19-14 12-10 22-18 28-24 11-10 8-7 7-7 8-7 5-5h2l1-3 8-7 24-24 7-8 27-30 12-14 13-17 12-15 12-16 14-18 11-16 24-36 10-16 12-20 10-17 7-14 9-16 14-27 18-37 10-23 16-42 9-25 18-54 19-75 8-40 7-41 9-82 2-34v-96l-1-38z" fill="#036cf7"/>
<path transform="translate(986,276)" d="m0 0 4 2 2 6 6 43 7 57 1 10v170l-7 63-9 53-6 29-12 48-13 43-8 24-17 43-12 30-19 40-17 35-32 54-12 19-14 20-11 16-16 21-12 16-13 16-9 11-11 13-13 15-9 10-20 20-7 8-9 10-13 13-8 7-36 33-16 13-12 9-14 11-18 14-19 14-30 20-9 5-3-1-3-8-10-45-6-20-11-31-11-25-13-27-14-23-14-21-10-13-11-14-10-11-7-8-12-13-15-15-8-7-12-10-17-12-20-14-26-15-22-12-28-13-19-9-5-3v-2l16-4 31-7 52-14 36-12 40-14 30-13 27-12 25-12 24-12 22-12 29-16 54-36 19-14 18-13 14-11 15-13 14-12 24-22 13-12 8-7 3-1v-2l8-7 7-7 9-11 7-7 1-2h2l2-4 15-16 9-11 28-36 12-16 13-18 13-20 7-11 8-13 15-25 13-23 8-16 15-29 7-15 14-33 13-32 26-78 3-10z" fill="#08ff95"/>
</svg>
