<?xml version="1.0" encoding="UTF-8"?>
<svg version="1.1" viewBox="0 0 2048 647" width="128" height="128" xmlns="http://www.w3.org/2000/svg">
<path transform="translate(240,59)" d="m0 0h159l-1 18-5 32-8 32-9 27-9 21-10 21-11 19-12 18-9 12-13 16-12 13-17 17-11 9-12 10-17 12-19 12-22 12-25 11-25 9-28 8-31 6-25 3h-12v-154l25-2 24-5 21-7 19-9 19-12 11-9 12-11 7-7 8-10 10-14 13-25 7-19 5-21 2-15z" fill="blue"/>
<path transform="translate(472,191)" d="m0 0 4 2 14 12 15 10 18 10 20 8 18 5 17 3 23 2 1 1v176l-30 3-22 5-20 7-16 8-15 9-12 9-10 9-8 7-7 8-10 13-10 16-8 16-6 15-5 18-3 15-2 23-1 3h-144l5-5 14-10 16-13 15-13 16-15 9-9 7-8 10-11 11-14 13-17 14-21 9-15 12-22 12-25 10-26 9-27 8-32 5-27 4-36 1-20v-24z" fill="blue"/>
<path transform="translate(425,144)" d="m0 0 2 2 5 38 1 11v61l-3 28-5 29-6 24-7 23-13 33-14 29-16 27-11 16-12 16-9 11-12 14-9 9-7 8-10 9-13 12-14 11-17 13-15 10-2-1-5-23-7-20-9-19-10-16-11-14-12-13-11-10-17-12-16-9-17-8-6-3v-1l15-3 26-7 29-10 25-11 16-8 22-12 21-14 19-14 14-12 13-12 9-8 7-8 11-12 11-14 12-16 11-17 10-17 12-23 12-28 11-33z" fill="#08ff97"/>
<path transform="translate(1100,214)" d="m0 0h19l19 3 18 6 14 7 14 10 12 11 10 12 9 15 7 17 4 17 1 7v25l-3 17-5 15-8 16-9 13-9 10-11 10-15 10-18 8-15 4-12 2h-25l-17-3-15-5-16-8-14-10-13-12-10-13-9-15-6-16-4-16-1-7v-24l3-18 5-15 10-19 9-12 10-11 14-11 14-8 14-6 15-4zm-2 46-12 3-16 8-10 8-9 10-8 14-4 12-2 13 1 16 5 16 6 11 8 10 10 9 14 8 13 4 5 1h21l15-4 14-7 10-8 9-10 8-14 4-11 2-15-1-15-5-16-8-14-9-10-10-8-16-8-12-3z" fill="blue"/>
<path transform="translate(733,217)" d="m0 0h79l18 3 15 5 19 10 10 8 10 9 10 12 9 15 6 14 4 15 2 14v18l-3 18-6 18-9 17-11 14-11 11-16 11-14 7-15 5-17 3-78 1-3-1v-45l71-1 14-2 14-5 11-7 10-9 7-10 6-13 3-14v-15l-4-16-7-14-8-10-10-8-16-8-13-3-31-1v109l-6 1h-40l-1-1v-154z" fill="blue"/>
<path transform="translate(1570,217)" d="m0 0h176l-2 6-15 28-18 34-15 28-12 23-12 22-12 23-9 16 1 1 94 1v45h-176l8-16 12-23 12-22 18-34 14-26 17-32 14-26 1-2h-95l-1-1z" fill="blue"/>
<path transform="translate(1408,214)" d="m0 0h27l20 4 16 6 15 8 12 9-2 6-13 21-8 13-4-1-8-7-15-8-15-4h-23l-12 3-16 8-11 9-7 8-8 14-5 16v24l4 15 7 13 8 10 9 8 14 8 12 4 6 1h21l15-4 16-8 10-9h2l9 16 13 21 1 4-16 11-16 8-16 5-16 3h-25l-17-3-15-5-19-10-12-9-11-10-11-14-8-13-6-14-5-20-1-7v-25l4-20 6-16 8-15 9-12 11-12 14-11 16-9 13-5 16-4z" fill="blue"/>
<path transform="translate(1834,308)" d="m0 0h120v45l-6 1h-68v45h110v45l-155 1-1-1z" fill="blue"/>
<path transform="translate(1834,217)" d="m0 0h155l1 1v44l-1 1h-155z" fill="blue"/>
</svg>
